<?xml version="1.0" encoding="UTF-8"?>
<svg id="_图层_1" data-name="图层 1" xmlns="http://www.w3.org/2000/svg" viewBox="0 0 509 154.52">
  <defs>
    <style>
      .cls-1 {
        fill: #fff;
      }

      .cls-2 {
        fill: #8e47f0;
      }

      .cls-3 {
        fill: #3f3faa;
      }

      .cls-4 {
        fill: #8f39ff;
      }
    </style>
  </defs>
  <path class="cls-1" d="M165.84,111.72c0-2.86,2.44-4.94,5.74-4.94,2.44,0,4.31,1.3,5.74,3.77,3.01,5.33,8.04,8.85,16.5,8.85,10.62,0,16.79-6.5,16.79-15.74,0-9.76-7.03-16.26-17.94-16.26h-1c-3.73,0-5.88-2.08-5.88-5.07s2.15-5.07,5.88-5.07h.86c9.47,0,16.22-5.59,16.22-14.83,0-8.46-5.88-14.05-15.64-14.05-8.04,0-12.49,3.64-14.93,8.46-1.29,2.47-3.16,3.77-5.6,3.77-3.3,0-5.6-1.95-5.6-4.81,0-.78,.29-1.95,.57-2.73,3.01-7.94,11.77-14.83,25.98-14.83,17.08,0,27.56,9.89,27.56,23.68,0,9.37-5.74,15.74-12.06,19.25v.26c6.32,2.34,13.92,10.15,13.92,22.12,0,15.35-12.06,26.02-29.13,26.02-14.93,0-23.82-6.76-27.55-15.35-.29-.78-.43-1.69-.43-2.47Z"/>
  <path class="cls-1" d="M235.87,83.88c0-20.81,1-25.5,2.15-28.88,3.88-10.8,13.2-16.78,26.69-16.78s22.82,5.98,26.69,16.78c1.15,3.38,2.15,8.07,2.15,28.88s-1,25.5-2.15,28.88c-3.87,10.8-13.2,16.78-26.69,16.78s-22.82-5.98-26.69-16.78c-1.15-3.38-2.15-8.07-2.15-28.88Zm28.85,35.52c7.18,0,12.49-2.99,14.78-8.85,1-2.73,1.58-6.5,1.58-26.67s-.57-23.94-1.58-26.67c-2.3-5.85-7.61-8.85-14.78-8.85s-12.49,2.99-14.78,8.85c-1,2.73-1.58,6.5-1.58,26.67s.57,23.94,1.58,26.67c2.3,5.85,7.61,8.85,14.78,8.85Z"/>
  <path class="cls-1" d="M310.21,116.01l33.3-38.51c4.45-5.2,6.75-9.76,6.75-15.22,0-8.07-5.88-13.92-15.36-13.92-8.61,0-13.35,4.16-15.5,10.67-1,2.86-3.16,4.29-5.6,4.29-3.59,0-6.03-1.95-6.03-5.07,0-.52,.14-1.43,.29-1.95,2.3-9.11,11.05-18.08,27.27-18.08s27.27,10.28,27.27,24.07c0,7.94-3.44,14.57-9.62,21.47l-29.85,33.95v.26h34.59c3.73,0,5.88,2.08,5.88,5.07s-2.15,5.07-5.88,5.07h-45.21c-3.73,0-5.88-2.08-5.88-4.81,0-2.34,1-4.16,3.59-7.29Z"/>
  <path class="cls-4" d="M383.98,113c4.45,0,8.18,3.58,8.18,7.86s-3.73,7.86-8.18,7.86-8.18-3.58-8.18-7.86,3.73-7.86,8.18-7.86Z"/>
  <path class="cls-1" d="M406.22,120.82l30-75.32c1.58-4.16,4.02-6.5,8.32-6.5s7.03,2.34,8.61,6.5l29.56,75.32c.29,.78,.57,1.69,.57,2.6,0,3.25-2.73,5.33-6.03,5.33-2.87,0-5.17-1.43-6.17-4.16l-6.6-17.04h-40.04l-6.6,17.04c-1,2.73-3.3,4.16-6.17,4.16-3.3,0-6.03-2.08-6.03-5.33,0-.91,.29-1.82,.57-2.6Zm54.11-23.94l-15.5-40.2h-.43l-15.79,40.2h31.72Z"/>
  <path class="cls-1" d="M496.94,47.06c0-5.15,2.58-8.28,6.03-8.28s6.03,3.13,6.03,8.28V120.48c0,5.15-2.58,8.28-6.03,8.28s-6.03-3.13-6.03-8.28V47.06Z"/>
  <g>
    <circle class="cls-3" cx="78.41" cy="89.92" r="64.6"/>
    <circle class="cls-2" cx="64.6" cy="76.37" r="64.6"/>
  </g>
  <path class="cls-1" d="M63.6,119.36c-4.59,0-9.02-1.52-12.7-4.38-4.36-3.4-7.14-8.3-7.82-13.8-.21-1.68-.21-3.34-.02-4.98-1.28,.25-2.6,.38-3.94,.38-11.43,0-20.72-9.3-20.72-20.72s9.3-20.72,20.72-20.72c1.63,0,3.22,.19,4.75,.55-.09-.78-.13-1.57-.13-2.37,0-11.43,9.3-20.72,20.72-20.72s20.72,9.3,20.72,20.72c0,.66-.03,1.32-.1,1.98,1.68-.29,3.4-.38,5.14-.25,11.39,.85,19.98,10.8,19.13,22.2-.41,5.52-2.94,10.55-7.14,14.16-4.19,3.61-9.55,5.38-15.06,4.97-1-.07-1.99-.22-2.95-.43,0,.05,.01,.1,.02,.14,.68,5.49-.82,10.92-4.22,15.29-3.4,4.37-8.3,7.14-13.8,7.82-.87,.11-1.73,.16-2.59,.16Zm-11.5-27.37c-1.45,2.52-2.03,5.38-1.67,8.28,.44,3.53,2.22,6.68,5.03,8.87,2.8,2.19,6.29,3.15,9.82,2.71,3.53-.44,6.68-2.22,8.87-5.03,2.19-2.8,3.15-6.29,2.71-9.82-.29-2.33-1.17-4.52-2.57-6.37-.91-.88-1.75-1.85-2.5-2.91-1.19-1.67-.8-3.98,.87-5.16,1.67-1.19,3.98-.79,5.16,.87,.28,.39,.57,.76,.88,1.11,.25,.17,.48,.38,.69,.62,.13,.15,.25,.3,.37,.45,2.17,1.96,4.95,3.17,7.93,3.39,7.34,.55,13.72-4.97,14.26-12.29,.54-7.32-4.97-13.72-12.29-14.26-2.8-.21-5.55,.45-7.93,1.92-1.13,.93-2.76,1.13-4.13,.38-1.79-.98-2.45-3.23-1.47-5.03,1.07-1.94,1.63-4.15,1.63-6.39,0-7.34-5.97-13.32-13.32-13.32s-13.32,5.97-13.32,13.32c0,2.63,.76,5.17,2.21,7.35,.07,.11,.13,.22,.19,.33,3.88,3.77,6.3,9.04,6.3,14.87,0,6.51-3.02,12.33-7.73,16.13Zm-12.99-29.45c-7.34,0-13.32,5.97-13.32,13.32s5.97,13.32,13.32,13.32,13.32-5.97,13.32-13.32-5.97-13.32-13.32-13.32Z"/>
</svg>