<svg xmlns="http://www.w3.org/2000/svg" width="328" height="92" data-name="&#x56FE;&#x5C42; 1"><title>CA-LOGO</title><g><title>Layer 1</title><path fill="#1db0e5" d="m56.39,16.29a1.35,1.35 0 0 0 -0.53,0.69c-2.01,7.35 -6.56,32.02 18.52,41.22a1.17,1.17 0 0 0 0.42,0.05l0.11,0c0.16,0 0.26,-0.05 0.42,-0.05c25.14,-9.2 20.54,-33.87 18.52,-41.2a1.35,1.35 0 0 0 -0.53,-0.69a34.39,34.39 0 0 0 -18.46,-5.31l0,0a34.53,34.53 0 0 0 -18.47,5.29zm28.89,11.17a2.15,2.15 0 0 1 -0.69,3a2.12,2.12 0 0 1 -2.91,-0.69a7,7 0 0 0 -6.08,-3.44a7.09,7.09 0 1 0 6.09,10.67a2.15,2.15 0 0 1 2.91,-0.74a2.09,2.09 0 0 1 0.69,2.91a11.37,11.37 0 1 1 -9.69,-17.27a11.73,11.73 0 0 1 9.68,5.56z" class="cls-2" data-name="&lt;&#x590D;&#x5408;&#x8DEF;&#x5F84;&gt;" id="_&#x590D;&#x5408;&#x8DEF;&#x5F84;_"></path><path id="svg_2" d="m138.51,55.29a18.87,18.87 0 0 1 -11.37,3.71c-11,0 -18.57,-8.1 -18.57,-18.73s7.94,-18.73 18.52,-18.73a18.18,18.18 0 0 1 11,3.49l-1.69,5.08a15.53,15.53 0 0 0 -9.1,-3.17c-7.51,0 -12.75,5.87 -12.75,13.39s5.08,13.39 12.8,13.39a15.81,15.81 0 0 0 9.47,-3.39l1.69,4.96z"></path><path id="svg_3" d="m154.81,30.79c8.15,0 13,5.61 13,14.07a11.51,11.51 0 0 1 -0.05,1.38l-20.31,0c0.11,4.81 3.54,7.88 8.36,7.88a8.73,8.73 0 0 0 7.41,-3.76l3.7,2.8c-1.27,2.22 -4.87,5.87 -11.27,5.87c-8.41,0 -14,-5.87 -14,-14c0.04,-8.37 5.8,-14.24 13.16,-14.24zm7.25,11.59a6.84,6.84 0 0 0 -7.2,-6.93a7.07,7.07 0 0 0 -7.2,6.93l14.4,0z"></path><path id="svg_4" d="m185.49,36.45c-5.87,0 -7.57,4.5 -7.57,10.32l0,11.58l-5.61,0l0,-26.93l5.5,0l0,4.23a8,8 0 0 1 7.67,-4.92l0,5.71l0.01,0.01z"></path><path id="svg_5" d="m191.69,25.81l5.56,0l0,5.61l5.45,0l0,4.66l-5.45,0l0,12.54c0,4.18 1.59,5.13 4.6,5.13c0.48,0 1.06,-0.05 1.06,-0.05l0,4.87a14.75,14.75 0 0 1 -2.75,0.21c-6.56,0 -8.52,-4.39 -8.52,-11l0,-11.65l-3,0l0,-4.65l3,0l0,-5.67l0.05,0z"></path><path id="svg_6" d="m207.24,47.67l0,-16.25l5.56,0l0,16.67c0,3.7 2.33,5.87 5.4,5.87c3.54,0 5.87,-2.59 5.87,-6.3l0,-16.24l5.61,0l0,26.93l-5.5,0l0,-3.49a8.61,8.61 0 0 1 -7.57,4.14c-6.99,0 -9.37,-5.46 -9.37,-11.33z"></path><path id="svg_7" d="m273.8,58.35l-5.56,0l0,-16.13c0,-4.18 -1.8,-6.4 -5.19,-6.4c-3.12,0 -5.45,2.33 -5.45,6.46l0,16.07l-5.6,0l0,-16.66c0,-3.65 -2,-5.87 -5.19,-5.87c-3.07,0 -5.4,2.49 -5.4,6.35l0,16.18l-5.61,0l0,-26.93l5.5,0l0,3.49a8,8 0 0 1 7.25,-4.18c3.76,0 6.46,1.75 7.72,4.5a9.1,9.1 0 0 1 8.31,-4.5c6.08,0 9.21,4.18 9.21,10l0,17.62l0.01,0z"></path><text xml:space="preserve" text-anchor="start" font-family="'Roboto Mono'" font-size="11" stroke-width="0" id="svg_11" y="81.74995" x="185.74967" fill="#000000">官方授权合作伙伴</text></g></svg>